<svg width="2217" height="709" viewBox="0 0 2217 709" fill="none" xmlns="http://www.w3.org/2000/svg">
<g filter="url(#filter0_d_8817_262236)">
<path d="M332.818 332.511L324.416 356.977L339.762 350.949L332.818 332.511Z" fill="#F03E1E"/>
<path d="M338.648 307.502L332.83 332.601L339.771 351.039L338.648 307.502Z" fill="#F79059"/>
<path d="M369.799 351.648L338.655 307.445L339.781 350.978L369.799 351.648Z" fill="#C6361F"/>
<path d="M346.041 317.946L369.786 351.648L396.816 346.478L369.745 331.265L346.041 317.946Z" fill="#F36717"/>
<path d="M369.723 331.256L396.794 346.469L390.985 319.182L369.723 331.256Z" fill="#C6361F"/>
<path d="M369.745 331.242L391.007 319.169L346.041 317.923L369.745 331.242Z" fill="#F79059"/>
<path d="M360.957 309.386L346.041 317.965L391.007 319.211L388.458 307.245L386.969 293.964L376.04 300.459L360.957 309.386Z" fill="#F36717"/>
<path d="M360.956 309.312L360.89 309.198L360.956 309.312Z" fill="#F36717"/>
<path d="M338.465 270.376L338.642 307.491L346.038 317.992L338.465 270.376Z" fill="#F36717"/>
<path d="M360.888 309.287L338.503 270.569L346.045 317.992L360.961 309.413L360.888 309.287Z" fill="#F03E1E"/>
<path d="M350.525 290.273L351.616 281.024L351.6 281.03L352.549 273.666L353.763 265.093L338.465 270.339L349.732 289.957L350.525 290.273Z" fill="#F79059"/>
<path d="M376.047 300.386L360.963 294.371L350.534 290.21L349.741 289.894L349.734 289.891L360.89 309.186L360.963 309.312L376.047 300.386Z" fill="#C6361F"/>
<path d="M360.966 294.462L376.049 300.477L386.978 293.981L360.966 294.462Z" fill="#F79059"/>
<path d="M360.966 294.391L386.978 293.91L387.443 288.275L388.894 270.693L389.356 265.112L360.966 294.391Z" fill="#C6361F"/>
<path d="M367.496 273.62H352.545L351.6 280.984L351.612 280.981L351.758 279.751L367.496 273.62Z" fill="#F03E1E"/>
<path d="M367.502 273.68L370.959 272.333L353.766 265.11L352.552 273.68H367.502Z" fill="#F03E1E"/>
<path d="M389.388 265.142L353.808 265.082L371 272.305L389.388 265.142Z" fill="#C6361F"/>
<path d="M371.003 272.274L367.547 273.622L351.809 279.75L351.663 280.98L350.572 290.229L361.001 294.391L389.391 265.112L371.003 272.274Z" fill="#F36717"/>
<path d="M387.464 288.297L408.72 270.715H388.915L387.464 288.297Z" fill="#F36717"/>
<path d="M342.01 265.076L338.465 270.328L353.763 265.082L342.01 265.076Z" fill="#C6361F"/>
<path d="M347.082 257.528L316.764 270.328H338.437L341.985 265.076L347.082 257.528Z" fill="#F03E1E"/>
<path d="M325.403 257.528L322.433 261.926L316.764 270.328L347.082 257.528H325.403Z" fill="#F79059"/>
<path d="M325.475 257.555L310.977 261.953H322.506L325.475 257.555Z" fill="#F36717"/>
<path d="M314.477 257.555L310.977 261.953L325.478 257.555H314.477Z" fill="#C6361F"/>
<path d="M289.542 261.953H310.972L319.839 250.152L289.542 261.953Z" fill="#F36717"/>
<path d="M297.305 250.152L289.542 261.953L319.835 250.152H297.305Z" fill="#F79059"/>
<path d="M293.435 256.008L297.264 250.186H267.765L293.435 256.008Z" fill="#F36717"/>
<path d="M416.403 284.336L408.722 270.777L396.602 280.804L416.403 284.336Z" fill="#F03E1E"/>
<path d="M339.752 350.983L324.406 357.01C324.406 357.01 321.456 374.737 321.295 375.711L369.771 351.653L339.752 350.983Z" fill="#F36717"/>
<path d="M369.799 351.623L321.323 375.681L313.49 422.766L336.308 393.936L369.799 351.623Z" fill="#C6361F"/>
<path d="M336.333 393.984L386.567 357.031L397.802 348.468L396.854 346.498L369.823 351.672L336.333 393.984Z" fill="#F79059"/>
<path d="M336.333 393.909L394.779 406.32L386.567 356.956L336.333 393.909Z" fill="#F79059"/>
<path d="M368.716 417.426L368.656 417.594L368.716 417.426Z" fill="#F36717"/>
<path d="M336.333 393.992L368.723 417.516L400.541 441.039L394.779 406.404L336.333 393.992Z" fill="#F36717"/>
<path d="M368.698 417.46L336.308 393.936L313.49 422.766L368.698 417.46Z" fill="#F03E1E"/>
<path d="M368.758 417.516L313.55 422.822L310.521 441.039L368.758 417.516Z" fill="#C6361F"/>
<path d="M368.698 417.669L368.758 417.501L310.521 441.025L350.601 468.453L368.698 417.669Z" fill="#F36717"/>
<path d="M368.662 417.568L355.864 453.481L358.963 444.785L369.952 454.445L400.536 440.924L368.722 417.401L368.662 417.568Z" fill="#C6361F"/>
<path d="M336.316 458.682L310.468 440.993L265.442 520.992L284.011 504.669L336.316 458.682Z" fill="#C6361F"/>
<path d="M284.021 504.703L350.563 468.458L336.327 458.716L284.021 504.703Z" fill="#F79059"/>
<path d="M284.011 504.762L265.442 521.085L275.441 557.086L284.011 504.762Z" fill="#F03E1E"/>
<path d="M284.026 504.762L275.456 557.086L310.458 500.088L284.026 504.762Z" fill="#C6361F"/>
<path d="M284.021 504.703L310.454 500.029L350.563 468.458L284.021 504.703Z" fill="#F36717"/>
<path d="M310.444 499.938L336.444 530.438L350.553 468.367L310.444 499.938Z" fill="#F03E1E"/>
<path d="M292.969 545.055L336.467 530.553L310.468 500.054L292.969 545.055Z" fill="#C6361F"/>
<path d="M275.456 589.984L294.777 571.138L336.457 530.485L292.955 544.984L275.456 589.984Z" fill="#F36717"/>
<path d="M330.491 598.812L336.436 530.434L294.759 571.09L330.491 598.812Z" fill="#F79059"/>
<path d="M294.777 571.09L275.456 589.936L330.509 598.812L294.777 571.09Z" fill="#C6361F"/>
<path d="M325.456 656.992L330.509 598.872L275.456 589.992L325.456 656.992Z" fill="#F36717"/>
<path d="M414.266 493.475L445.565 520.992L400.539 440.993L369.951 454.514L414.266 493.475Z" fill="#C6361F"/>
<path d="M369.952 454.551L358.963 444.891L355.864 453.587L358.77 465.537L426.997 504.703L414.266 493.512L369.952 454.551Z" fill="#F79059"/>
<path d="M435.591 557.086L445.59 521.085L427.021 504.762L435.591 557.086Z" fill="#F03E1E"/>
<path d="M426.994 504.762L400.562 500.088L435.563 557.086L426.994 504.762Z" fill="#C6361F"/>
<path d="M358.758 465.537L358.862 465.964L400.552 500.029L426.985 504.703L358.758 465.537Z" fill="#F36717"/>
<path d="M374.525 530.438L400.524 499.938L358.834 465.873L374.525 530.438Z" fill="#F03E1E"/>
<path d="M374.596 530.553L418.094 545.055L400.595 500.054L374.596 530.553Z" fill="#C6361F"/>
<path d="M374.596 530.485L416.276 571.141L435.597 589.984L418.094 544.984L374.596 530.485Z" fill="#F36717"/>
<path d="M416.276 571.09L374.596 530.434V530.437L380.544 598.812L416.276 571.09Z" fill="#F79059"/>
<path d="M380.497 598.812L435.55 589.933L416.229 571.09L380.497 598.812Z" fill="#C6361F"/>
<path d="M385.55 656.992L435.55 589.992L380.497 598.872L385.55 656.992Z" fill="#F36717"/>
<path d="M374.593 530.438L350.592 468.367L336.485 530.438H374.593Z" fill="#F36717"/>
<path d="M355.872 453.496L350.572 468.367L374.573 530.438L358.879 465.873L358.778 465.446L355.872 453.496Z" fill="#C6361F"/>
<path d="M374.593 530.438H336.485L341.029 571.094L374.593 530.438Z" fill="#F79059"/>
<path d="M374.542 530.47L340.979 571.126L366.393 603.383L374.542 530.47Z" fill="#F36717"/>
<path d="M360.407 656.992L366.396 603.406L340.979 571.146L360.407 656.992Z" fill="#F36717"/>
<path d="M355.507 701L360.424 657.002L341.663 574.106L355.507 701Z" fill="#F03E1E"/>
<path d="M181.455 228.06C181.484 229.297 181.737 230.656 182.144 232.102C181.901 230.783 181.67 229.442 181.455 228.06Z" fill="#F36717"/>
<path d="M310.458 441.039L324.432 357.039C321.064 357.821 261.258 416.665 261.255 416.665L310.458 441.039Z" fill="#F03E1E"/>
<path d="M265.101 357.021L256.648 372.664L324.439 356.939L282.439 324.938L265.145 356.939C265.272 356.97 265.224 356.999 265.101 357.021Z" fill="#C6361F"/>
<path d="M256.666 372.791L265.119 357.148C262.058 357.726 186.1 355.469 186.1 355.469L199.457 386.062L256.666 372.791Z" fill="#F36717"/>
<path d="M265.141 357.038C265.264 357.016 265.311 356.987 265.185 356.956C211.621 342.859 171.519 283.685 171.519 283.685L186.121 355.359C186.121 355.359 262.08 357.617 265.141 357.038Z" fill="#C6361F"/>
<path d="M133.865 390.041C133.865 390.041 165.955 409.473 180.011 415.914L186.133 355.33L133.865 390.041Z" fill="#F03E1E"/>
<path d="M186.093 355.318L179.971 415.902C179.971 415.902 235.511 443.486 267.449 445.914L225.692 398.912L199.45 385.912L186.093 355.318Z" fill="#C6361F"/>
<path d="M74.4717 343.064C74.4717 343.064 112.234 377.461 133.848 390.18L186.115 355.469L74.4717 343.064Z" fill="#F36717"/>
<path d="M61.4587 319.94L107.768 332.766L31.4593 202.94C20.1862 286.845 61.4587 319.94 61.4587 319.94Z" fill="#F03E1E"/>
<path d="M31.4502 202.94L107.759 332.766V267.853C76.7987 257.335 31.4502 202.94 31.4502 202.94Z" fill="#C6361F"/>
<path d="M107.785 267.853V332.766L127.476 273.94L107.785 267.853Z" fill="#F36717"/>
<path d="M143.535 296.226L186.098 355.305L166.066 256.996L143.535 296.226Z" fill="#F36717"/>
<path d="M110.564 230.03L55.0176 202.984C55.0176 202.984 94.2252 260.887 127.497 273.984L166.111 257.076L110.564 230.03Z" fill="#F03E1E"/>
<path d="M107.785 332.872L186.118 355.453L150.708 306.297L107.785 332.872Z" fill="#F79059"/>
<path d="M143.513 296.367L166.044 257.137L127.431 274.042L143.513 296.367Z" fill="#F79059"/>
<path d="M261.249 416.68C261.249 416.68 321.058 357.835 324.426 357.054L199.426 386.054L225.669 399.054L261.249 416.68Z" fill="#F79059"/>
<path d="M109.725 227.481L68.6458 100.587L67.3778 96.6755C59.8803 105.972 52.2058 119.19 47.1084 137.49C41.3817 156.371 41.4639 173.076 41.4639 173.076C44.1929 186.98 54.9822 203.079 54.9822 203.079L110.532 230.125L109.725 227.481Z" fill="#F36717"/>
<path d="M103.55 146.602L103.559 146.615C83.8495 111.597 90.4395 76.9779 90.4395 76.9779C90.4395 76.9779 79.1569 81.952 67.3873 96.5327C67.381 96.539 67.3525 96.5738 67.3525 96.5738L68.6206 100.489L109.7 227.383L103.55 146.602Z" fill="#F79059"/>
<path d="M109.748 227.481L110.554 230.125L127.488 192.432L134.448 179.078L103.607 146.714L103.598 146.701L109.748 227.481Z" fill="#C6361F"/>
<path d="M127.431 192.352L183.429 181.995C171.492 162.232 166.313 117.766 166.313 117.766L134.391 178.998L127.431 192.352Z" fill="#F79059"/>
<path d="M127.431 192.339L166.044 257.078C162.053 215.078 183.429 181.983 183.429 181.983L127.431 192.339Z" fill="#F03E1E"/>
<path d="M263.472 0.0717405C193.535 2.9746 123.471 55.0712 123.471 55.0712L172.816 77.0703C210.221 16.3094 260.076 2.50028 263.472 0.0717405Z" fill="#F36717"/>
<path d="M282.423 324.976L214.654 319.157C214.654 319.157 244.328 348.047 265.132 356.977L282.423 324.976Z" fill="#F03E1E"/>
<path d="M221.137 284.278L214.654 319.182L282.423 325C244.818 311.57 221.137 284.278 221.137 284.278Z" fill="#F36717"/>
<path d="M212.588 284.171L186.795 283.76H186.785C192.379 297.392 214.701 319.211 214.701 319.211L221.186 284.307L212.588 284.171Z" fill="#C6361F"/>
<path d="M182.148 232.097C181.74 230.655 181.487 229.292 181.459 228.056C181.459 228.056 172.017 254.412 186.784 283.789L212.578 284.2L212.581 284.197L221.176 284.336C221.176 284.336 187.359 250.605 182.148 232.097Z" fill="#F36717"/>
<path d="M127.46 192.339L110.526 230.032L166.073 257.078L127.46 192.339Z" fill="#F36717"/>
<path d="M113.506 96.5625L111.707 95.8384Z" fill="#F79059"/>
<path d="M111.707 95.9531H112.156L111.717 95.776C111.713 95.833 111.71 95.893 111.707 95.9531Z" fill="#F79059"/>
<path d="M165.879 117.661C165.819 117.648 165.74 117.626 165.674 117.61C165.534 117.576 165.386 117.538 165.212 117.487C165.114 117.459 165 117.424 164.893 117.389C164.719 117.335 164.538 117.278 164.339 117.212C164.21 117.168 164.067 117.12 163.925 117.07C163.716 116.997 163.498 116.921 163.27 116.836C163.109 116.779 162.945 116.719 162.771 116.655C162.53 116.564 162.277 116.469 162.018 116.371C161.835 116.301 161.655 116.232 161.462 116.159C161.164 116.042 160.851 115.919 160.535 115.795C160.355 115.723 160.184 115.656 160.001 115.583C159.59 115.419 159.16 115.245 158.72 115.068C158.609 115.024 158.508 114.983 158.394 114.935C157.841 114.711 157.269 114.474 156.677 114.23C156.434 114.129 156.181 114.021 155.931 113.917C155.574 113.768 155.213 113.62 154.843 113.462C154.527 113.329 154.201 113.193 153.879 113.054C153.556 112.918 153.234 112.782 152.902 112.639C152.576 112.5 152.244 112.361 151.912 112.216C151.555 112.064 151.197 111.912 150.834 111.757C150.495 111.609 150.154 111.463 149.806 111.311C149.464 111.166 149.12 111.017 148.775 110.866C148.405 110.704 148.035 110.546 147.662 110.382C147.333 110.239 147.001 110.097 146.672 109.952C146.271 109.778 145.872 109.601 145.464 109.424C145.158 109.291 144.844 109.152 144.535 109.016C144.111 108.829 143.687 108.643 143.257 108.456L113.489 96.4935L112.132 95.9465H111.68C111.284 103.156 111.569 111.21 112.957 120.02C116.723 150.073 134.403 178.953 134.403 178.953L166.322 117.724C166.214 117.724 166.063 117.699 165.879 117.661Z" fill="#F03E1E"/>
<path d="M123.461 54.9875C123.461 54.9875 113.177 69.9414 111.707 95.8047L113.769 95.1691L172.806 76.9867L123.461 54.9875Z" fill="#F79059"/>
<path d="M172.803 76.9647L113.766 95.1471L111.707 95.7827L113.503 96.5037L143.275 108.466C143.702 108.656 144.125 108.842 144.552 109.029C144.862 109.165 145.172 109.301 145.482 109.437C145.887 109.614 146.288 109.788 146.687 109.965C147.019 110.107 147.351 110.253 147.677 110.395C148.05 110.556 148.42 110.718 148.79 110.879C149.138 111.027 149.482 111.176 149.824 111.325C150.168 111.473 150.51 111.622 150.851 111.767C151.215 111.922 151.572 112.077 151.927 112.229C152.262 112.371 152.594 112.514 152.919 112.653C153.248 112.792 153.571 112.931 153.893 113.067C154.219 113.203 154.545 113.342 154.861 113.475C155.231 113.63 155.588 113.779 155.949 113.93C156.195 114.035 156.452 114.142 156.692 114.24C157.283 114.487 157.859 114.724 158.412 114.949C158.523 114.993 158.627 115.034 158.738 115.081C159.177 115.258 159.607 115.432 160.018 115.597C160.202 115.669 160.373 115.736 160.55 115.805C160.869 115.932 161.182 116.055 161.479 116.169C161.672 116.245 161.853 116.311 162.036 116.384C162.295 116.482 162.548 116.577 162.789 116.666C162.959 116.729 163.124 116.789 163.285 116.849C163.516 116.931 163.734 117.01 163.943 117.083C164.085 117.13 164.224 117.181 164.357 117.222C164.556 117.292 164.736 117.349 164.91 117.402C165.018 117.434 165.132 117.472 165.23 117.5C165.404 117.551 165.549 117.589 165.691 117.621C165.758 117.64 165.837 117.662 165.897 117.674C166.08 117.712 166.232 117.734 166.34 117.734C165.17 109.345 172.803 76.9647 172.803 76.9647Z" fill="#F36717"/>
<path d="M529.554 228.06C529.525 229.297 529.272 230.656 528.864 232.102C529.108 230.783 529.339 229.442 529.554 228.06Z" fill="#F36717"/>
<path d="M400.486 441.039L386.513 357.039C389.88 357.821 449.686 416.665 449.69 416.665L400.486 441.039Z" fill="#F03E1E"/>
<path d="M445.851 357.021L454.303 372.664L386.513 356.939L428.513 324.938L445.806 356.939C445.68 356.97 445.727 356.999 445.851 357.021Z" fill="#C6361F"/>
<path d="M454.32 372.791L445.867 357.148C448.925 357.726 524.886 355.469 524.886 355.469L511.529 386.062L454.32 372.791Z" fill="#F79059"/>
<path d="M445.91 357.038C445.787 357.016 445.739 356.987 445.866 356.956C499.429 342.859 539.532 283.685 539.532 283.685L524.929 355.359C524.929 355.359 448.971 357.617 445.91 357.038Z" fill="#C6361F"/>
<path d="M577.211 390.041C577.211 390.041 545.121 409.473 531.065 415.914L524.943 355.33L577.211 390.041Z" fill="#F03E1E"/>
<path d="M524.939 355.318L531.061 415.902C531.061 415.902 475.521 443.486 443.583 445.914L485.339 398.912L511.582 385.912L524.939 355.318Z" fill="#C6361F"/>
<path d="M636.587 343.064C636.587 343.064 598.824 377.461 577.211 390.18L524.943 355.469L636.587 343.064Z" fill="#F36717"/>
<path d="M649.568 319.94L603.258 332.766L679.567 202.94C690.84 286.845 649.568 319.94 649.568 319.94Z" fill="#F03E1E"/>
<path d="M679.567 202.94L603.258 332.766V267.853C634.219 257.335 679.567 202.94 679.567 202.94Z" fill="#C6361F"/>
<path d="M603.227 267.853V332.766L583.536 273.94L603.227 267.853Z" fill="#F36717"/>
<path d="M567.506 296.226L524.943 355.305L544.976 256.996L567.506 296.226Z" fill="#F36717"/>
<path d="M600.516 230.03L656.063 202.984C656.063 202.984 616.855 260.887 583.583 273.984L544.97 257.079L600.516 230.03Z" fill="#F79059"/>
<path d="M603.276 332.872L524.943 355.453L560.353 306.297L603.276 332.872Z" fill="#F79059"/>
<path d="M567.5 296.367L544.97 257.137L583.583 274.042L567.5 296.367Z" fill="#F03E1E"/>
<path d="M449.689 416.68C449.689 416.68 389.88 357.835 386.513 357.054L511.513 386.054L485.27 399.054L449.689 416.68Z" fill="#F36717"/>
<path d="M601.323 227.481L642.403 100.587L643.671 96.6755C651.168 105.972 658.843 119.19 663.94 137.49C669.667 156.371 669.585 173.076 669.585 173.076C666.856 186.98 656.066 203.079 656.066 203.079L600.517 230.125L601.323 227.481Z" fill="#F36717"/>
<path d="M607.467 146.602L607.457 146.615C627.167 111.597 620.577 76.9779 620.577 76.9779C620.577 76.9779 631.86 81.952 643.629 96.5327C643.636 96.539 643.664 96.5738 643.664 96.5738L642.396 100.489L601.316 227.383L607.467 146.602Z" fill="#F79059"/>
<path d="M601.269 227.481L600.463 230.125L583.529 192.432L576.569 179.078L607.41 146.714L607.419 146.701L601.269 227.481Z" fill="#C6361F"/>
<path d="M583.531 192.352L527.532 181.995C539.469 162.232 544.649 117.766 544.649 117.766L576.571 178.998L583.531 192.352Z" fill="#F79059"/>
<path d="M583.531 192.339L544.918 257.078C548.908 215.078 527.532 181.983 527.532 181.983L583.531 192.339Z" fill="#F03E1E"/>
<path d="M447.58 0.0717405C517.518 2.9746 587.582 55.0712 587.582 55.0712L538.236 77.0703C500.831 16.3094 450.976 2.50028 447.58 0.0717405Z" fill="#F36717"/>
<path d="M428.544 324.976L496.312 319.157C496.312 319.157 466.638 348.047 445.835 356.977L428.544 324.976Z" fill="#F03E1E"/>
<path d="M489.83 284.278L496.312 319.182L428.544 325C466.148 311.57 489.83 284.278 489.83 284.278Z" fill="#F36717"/>
<path d="M498.439 284.171L524.232 283.76H524.242C518.648 297.392 496.326 319.211 496.326 319.211L489.841 284.307L498.439 284.171Z" fill="#C6361F"/>
<path d="M528.868 232.097C529.276 230.652 529.529 229.292 529.558 228.056C529.558 228.056 539 254.412 524.232 283.789L498.439 284.2L498.436 284.197L489.841 284.336C489.841 284.336 523.657 250.605 528.868 232.097" fill="#F36717"/>
<path d="M583.583 192.339L600.516 230.032L544.97 257.078L583.583 192.339Z" fill="#F36717"/>
<path d="M597.509 96.5625L599.308 95.8384Z" fill="#F79059"/>
<path d="M599.329 95.9531H598.88L599.319 95.776C599.323 95.833 599.326 95.893 599.329 95.9531Z" fill="#F79059"/>
<path d="M545.146 117.661C545.206 117.648 545.285 117.626 545.351 117.61C545.491 117.576 545.639 117.538 545.813 117.487C545.911 117.459 546.025 117.424 546.132 117.389C546.306 117.335 546.487 117.278 546.686 117.212C546.815 117.168 546.958 117.12 547.1 117.07C547.309 116.997 547.527 116.921 547.755 116.836C547.916 116.779 548.08 116.719 548.254 116.655C548.495 116.564 548.748 116.469 549.007 116.371C549.19 116.301 549.37 116.232 549.563 116.159C549.861 116.042 550.174 115.919 550.49 115.795C550.67 115.723 550.841 115.656 551.024 115.583C551.435 115.419 551.865 115.245 552.305 115.068C552.416 115.024 552.517 114.983 552.631 114.935C553.184 114.711 553.756 114.474 554.348 114.23C554.591 114.129 554.844 114.021 555.094 113.917C555.451 113.768 555.812 113.62 556.182 113.462C556.498 113.329 556.824 113.193 557.146 113.054C557.469 112.918 557.791 112.782 558.123 112.639C558.449 112.5 558.781 112.361 559.113 112.216C559.47 112.064 559.828 111.912 560.191 111.757C560.53 111.609 560.871 111.463 561.219 111.311C561.561 111.166 561.905 111.017 562.25 110.866C562.62 110.704 562.99 110.546 563.363 110.382C563.692 110.239 564.024 110.097 564.353 109.952C564.754 109.778 565.153 109.601 565.561 109.424C565.867 109.291 566.181 109.152 566.49 109.016C566.914 108.829 567.338 108.643 567.768 108.456L597.537 96.4935L598.893 95.9465H599.345C599.741 103.156 599.456 111.21 598.068 120.02C594.302 150.073 576.622 178.953 576.622 178.953L544.703 117.724C544.811 117.724 544.962 117.699 545.146 117.661Z" fill="#F03E1E"/>
<path d="M587.538 54.9875C587.538 54.9875 597.821 69.9414 599.292 95.8047L597.23 95.1691L538.192 76.9867L587.538 54.9875Z" fill="#F79059"/>
<path d="M538.192 76.9647L597.23 95.1471L599.288 95.7827L597.492 96.5037L567.721 108.466C567.294 108.656 566.87 108.842 566.443 109.029C566.133 109.165 565.823 109.301 565.513 109.437C565.109 109.614 564.707 109.788 564.305 109.965C563.977 110.107 563.645 110.253 563.319 110.395C562.946 110.556 562.576 110.718 562.206 110.879C561.858 111.027 561.513 111.176 561.172 111.325C560.827 111.473 560.486 111.622 560.144 111.767C559.78 111.922 559.423 112.077 559.069 112.229C558.734 112.371 558.402 112.514 558.076 112.653C557.747 112.792 557.425 112.931 557.102 113.067C556.776 113.203 556.451 113.342 556.134 113.475C555.765 113.63 555.407 113.779 555.047 113.93C554.8 114.035 554.544 114.142 554.304 114.24C553.712 114.487 553.137 114.724 552.583 114.949C552.473 114.993 552.368 115.034 552.258 115.081C551.818 115.258 551.388 115.432 550.977 115.597C550.794 115.669 550.623 115.736 550.446 115.805C550.126 115.932 549.813 116.055 549.516 116.169C549.323 116.245 549.143 116.311 548.96 116.384C548.7 116.482 548.447 116.577 548.207 116.666C548.036 116.729 547.872 116.789 547.71 116.849C547.48 116.931 547.261 117.01 547.053 117.083C546.91 117.13 546.771 117.181 546.639 117.222C546.439 117.292 546.259 117.349 546.085 117.402C545.978 117.434 545.864 117.472 545.766 117.5C545.592 117.551 545.446 117.589 545.304 117.621C545.238 117.64 545.159 117.662 545.099 117.674C544.915 117.712 544.763 117.734 544.656 117.734C545.826 109.345 538.192 76.9647 538.192 76.9647Z" fill="#F36717"/>
<path d="M567.5 296.265L583.583 273.94L603.274 332.766L560.351 306.191L567.5 296.265Z" fill="#C6361F"/>
<path d="M143.559 296.265L127.476 273.94L107.785 332.766L150.708 306.191L143.559 296.265Z" fill="#C6361F"/>
<path d="M769.6 330V188H830.2C837 188 843.2 189.4 848.8 192.2C854.533 195 859.4 198.667 863.4 203.2C867.533 207.733 870.733 212.867 873 218.6C875.4 224.333 876.6 230.133 876.6 236C876.6 242.267 875.467 248.267 873.2 254C871.067 259.733 868 264.867 864 269.4C860.133 273.933 855.4 277.533 849.8 280.2C844.2 282.867 838 284.2 831.2 284.2H802.4V330H769.6ZM802.4 255.6H829.2C833.067 255.6 836.4 253.933 839.2 250.6C842 247.267 843.4 242.4 843.4 236C843.4 232.667 842.933 229.8 842 227.4C841.2 225 840.067 223 838.6 221.4C837.133 219.8 835.467 218.667 833.6 218C831.733 217.2 829.867 216.8 828 216.8H802.4V255.6ZM1106.91 188V330H1074.11V271.8H1017.51V330H984.709V188H1017.51V243H1074.11V188H1106.91ZM1286.82 331.2C1276.29 331.2 1266.69 329.133 1258.02 325C1249.36 320.867 1241.96 315.467 1235.82 308.8C1229.69 302 1224.89 294.267 1221.42 285.6C1218.09 276.933 1216.42 268 1216.42 258.8C1216.42 249.467 1218.16 240.467 1221.62 231.8C1225.22 223.133 1230.16 215.533 1236.42 209C1242.82 202.333 1250.36 197.067 1259.02 193.2C1267.69 189.2 1277.16 187.2 1287.42 187.2C1297.96 187.2 1307.56 189.267 1316.22 193.4C1324.89 197.533 1332.29 203 1338.42 209.8C1344.56 216.6 1349.29 224.333 1352.62 233C1355.96 241.667 1357.62 250.467 1357.62 259.4C1357.62 268.733 1355.82 277.733 1352.22 286.4C1348.76 295.067 1343.89 302.733 1337.62 309.4C1331.36 315.933 1323.89 321.2 1315.22 325.2C1306.56 329.2 1297.09 331.2 1286.82 331.2ZM1249.82 259.2C1249.82 264.667 1250.62 270 1252.22 275.2C1253.82 280.267 1256.16 284.8 1259.22 288.8C1262.42 292.8 1266.36 296 1271.02 298.4C1275.69 300.8 1281.02 302 1287.02 302C1293.29 302 1298.76 300.733 1303.42 298.2C1308.09 295.667 1311.96 292.4 1315.02 288.4C1318.09 284.267 1320.36 279.667 1321.82 274.6C1323.42 269.4 1324.22 264.133 1324.22 258.8C1324.22 253.333 1323.42 248.067 1321.82 243C1320.22 237.8 1317.82 233.267 1314.62 229.4C1311.42 225.4 1307.49 222.267 1302.82 220C1298.29 217.6 1293.02 216.4 1287.02 216.4C1280.76 216.4 1275.29 217.667 1270.62 220.2C1266.09 222.6 1262.22 225.8 1259.02 229.8C1255.96 233.8 1253.62 238.4 1252.02 243.6C1250.56 248.667 1249.82 253.867 1249.82 259.2ZM1566.88 301.2V330H1467.08V188H1565.08V216.8H1499.88V244.4H1555.88V271H1499.88V301.2H1566.88ZM1710.1 248.8V330H1677.3V188H1702.9L1769.1 271.4V188H1801.9V330H1775.5L1710.1 248.8ZM1919.56 330V188H1952.36V330H1919.56ZM2090.62 188L2121.62 237L2152.62 188H2188.02L2138.82 260L2186.42 330H2151.02L2121.62 283L2092.22 330H2056.62L2104.22 260L2055.02 188H2090.62Z" fill="#1E2535"/>
<path d="M840 428.042C838.88 426.81 837.256 425.522 835.128 424.178C833 422.722 830.48 421.378 827.568 420.146C824.768 418.914 821.632 417.906 818.16 417.122C814.8 416.338 811.328 415.946 807.744 415.946C799.792 415.946 793.912 417.402 790.104 420.314C786.408 423.226 784.56 427.258 784.56 432.41C784.56 435.322 785.12 437.73 786.24 439.634C787.472 441.426 789.32 443.05 791.784 444.506C794.248 445.85 797.328 447.082 801.024 448.202C804.72 449.21 809.032 450.33 813.96 451.562C820.008 453.018 825.44 454.642 830.256 456.434C835.184 458.226 839.328 460.41 842.688 462.986C846.048 465.562 848.624 468.754 850.416 472.562C852.32 476.258 853.272 480.794 853.272 486.17C853.272 492.218 852.096 497.426 849.744 501.794C847.504 506.162 844.368 509.746 840.336 512.546C836.416 515.234 831.824 517.25 826.56 518.594C821.296 519.826 815.64 520.442 809.592 520.442C800.52 520.442 791.728 519.098 783.216 516.41C774.816 513.61 767.2 509.578 760.368 504.314L768.936 488.186C770.392 489.642 772.464 491.266 775.152 493.058C777.952 494.85 781.144 496.53 784.728 498.098C788.424 499.554 792.4 500.842 796.656 501.962C800.912 502.97 805.336 503.474 809.928 503.474C817.32 503.474 823.032 502.186 827.064 499.61C831.096 497.034 833.112 493.226 833.112 488.186C833.112 485.162 832.328 482.642 830.76 480.626C829.304 478.61 827.176 476.874 824.376 475.418C821.576 473.85 818.16 472.45 814.128 471.218C810.096 469.986 805.504 468.698 800.352 467.354C794.416 465.786 789.208 464.162 784.728 462.482C780.36 460.69 776.72 458.562 773.808 456.098C770.896 453.634 768.656 450.778 767.088 447.53C765.632 444.17 764.904 440.138 764.904 435.434C764.904 429.61 766.024 424.458 768.264 419.978C770.504 415.386 773.528 411.578 777.336 408.554C781.256 405.418 785.848 403.066 791.112 401.498C796.376 399.93 802.088 399.146 808.248 399.146C816.312 399.146 823.76 400.434 830.592 403.01C837.424 405.586 843.416 408.778 848.568 412.586L840 428.042ZM954.959 502.634V519.266H873.143V399.986H953.447V416.618H891.959V450.554H945.215V466.178H891.959V502.634H954.959ZM965.349 458.786C965.349 451.618 966.637 444.506 969.213 437.45C971.789 430.282 975.541 423.898 980.469 418.298C985.509 412.586 991.613 407.994 998.781 404.522C1005.95 401.05 1014.07 399.314 1023.14 399.314C1034 399.314 1043.3 401.722 1051.03 406.538C1058.76 411.354 1064.58 417.626 1068.5 425.354L1053.72 435.266C1052.04 431.682 1050.02 428.658 1047.67 426.194C1045.32 423.73 1042.74 421.77 1039.94 420.314C1037.14 418.858 1034.23 417.85 1031.2 417.29C1028.18 416.618 1025.27 416.282 1022.47 416.282C1016.2 416.282 1010.71 417.57 1006 420.146C1001.3 422.61 997.325 425.914 994.077 430.058C990.941 434.202 988.533 438.85 986.853 444.002C985.285 449.154 984.501 454.306 984.501 459.458C984.501 465.282 985.453 470.826 987.357 476.09C989.261 481.354 991.893 486.002 995.253 490.034C998.725 494.066 1002.81 497.314 1007.52 499.778C1012.22 502.13 1017.37 503.306 1022.97 503.306C1025.88 503.306 1028.85 502.97 1031.88 502.298C1035.01 501.514 1037.98 500.338 1040.78 498.77C1043.69 497.09 1046.32 495.018 1048.68 492.554C1051.14 490.09 1053.16 487.122 1054.72 483.65L1070.35 492.554C1068.44 497.034 1065.76 501.01 1062.28 504.482C1058.81 507.842 1054.89 510.698 1050.52 513.05C1046.16 515.402 1041.51 517.194 1036.58 518.426C1031.76 519.658 1027 520.274 1022.3 520.274C1013.9 520.274 1006.23 518.482 999.285 514.898C992.341 511.314 986.349 506.666 981.309 500.954C976.269 495.13 972.349 488.578 969.549 481.298C966.749 473.906 965.349 466.402 965.349 458.786ZM1138.48 503.138C1144.75 503.138 1149.96 501.906 1154.1 499.442C1158.25 496.978 1161.55 493.786 1164.02 489.866C1166.59 485.834 1168.38 481.298 1169.39 476.258C1170.51 471.106 1171.07 465.842 1171.07 460.466V399.986H1190.06V460.466C1190.06 468.642 1189.1 476.37 1187.2 483.65C1185.3 490.818 1182.27 497.146 1178.13 502.634C1173.98 508.01 1168.61 512.266 1162 515.402C1155.5 518.538 1147.66 520.106 1138.48 520.106C1128.96 520.106 1120.9 518.482 1114.29 515.234C1107.79 511.874 1102.53 507.45 1098.5 501.962C1094.46 496.362 1091.55 489.978 1089.76 482.81C1087.97 475.642 1087.07 468.194 1087.07 460.466V399.986H1105.89V460.466C1105.89 465.954 1106.39 471.274 1107.4 476.426C1108.52 481.466 1110.31 486.002 1112.78 490.034C1115.35 493.954 1118.71 497.146 1122.86 499.61C1127.11 501.962 1132.32 503.138 1138.48 503.138ZM1216.08 519.266V399.986H1267.99C1273.37 399.986 1278.3 401.106 1282.78 403.346C1287.37 405.586 1291.29 408.554 1294.54 412.25C1297.78 415.834 1300.3 419.978 1302.1 424.682C1304 429.274 1304.95 433.978 1304.95 438.794C1304.95 442.826 1304.39 446.69 1303.27 450.386C1302.15 454.082 1300.58 457.498 1298.57 460.634C1296.55 463.77 1294.09 466.514 1291.18 468.866C1288.26 471.106 1285.07 472.786 1281.6 473.906L1309.66 519.266H1288.32L1262.45 477.77H1234.9V519.266H1216.08ZM1234.9 461.138H1267.82C1270.51 461.138 1272.92 460.578 1275.05 459.458C1277.29 458.226 1279.19 456.602 1280.76 454.586C1282.33 452.458 1283.56 450.05 1284.46 447.362C1285.35 444.674 1285.8 441.818 1285.8 438.794C1285.8 435.77 1285.24 432.914 1284.12 430.226C1283.11 427.538 1281.71 425.186 1279.92 423.17C1278.24 421.154 1276.22 419.586 1273.87 418.466C1271.63 417.234 1269.28 416.618 1266.82 416.618H1234.9V461.138ZM1328.15 519.266V399.986H1346.97V519.266H1328.15ZM1462.45 416.618H1422.8V519.266H1403.82V416.618H1364V399.986H1462.45V416.618ZM1488.18 399.986L1521.11 459.794L1554.38 399.986H1575.04L1530.52 476.594V519.266H1511.7V476.258L1467.52 399.986H1488.18Z" fill="url(#paint0_linear_8817_262236)"/>
</g>
<defs>
<filter id="filter0_d_8817_262236" x="0" y="0" width="2217" height="709" filterUnits="userSpaceOnUse" color-interpolation-filters="sRGB">
<feFlood flood-opacity="0" result="BackgroundImageFix"/>
<feColorMatrix in="SourceAlpha" type="matrix" values="0 0 0 0 0 0 0 0 0 0 0 0 0 0 0 0 0 0 127 0" result="hardAlpha"/>
<feOffset dy="4"/>
<feGaussianBlur stdDeviation="2"/>
<feComposite in2="hardAlpha" operator="out"/>
<feColorMatrix type="matrix" values="0 0 0 0 0 0 0 0 0 0 0 0 0 0 0 0 0 0 0.25 0"/>
<feBlend mode="normal" in2="BackgroundImageFix" result="effect1_dropShadow_8817_262236"/>
<feBlend mode="normal" in="SourceGraphic" in2="effect1_dropShadow_8817_262236" result="shape"/>
</filter>
<linearGradient id="paint0_linear_8817_262236" x1="1487.02" y1="550.741" x2="1026.29" y2="460.755" gradientUnits="userSpaceOnUse">
<stop stop-color="#FF9141"/>
<stop offset="1" stop-color="#FF6B00"/>
</linearGradient>
</defs>
</svg>
